<?xml version="1.0" encoding="utf-8"?>
<!-- Generator: Adobe Illustrator 25.2.3, SVG Export Plug-In . SVG Version: 6.00 Build 0)  -->
<svg version="1.1" id="Layer_1" xmlns="http://www.w3.org/2000/svg" xmlns:xlink="http://www.w3.org/1999/xlink" x="0px" y="0px" width="200px" height="54px"
	 viewBox="0 0 433.2 116.6" style="enable-background:new 0 0 433.2 116.6;" xml:space="preserve">
<style type="text/css">
	.st0{fill:#FFFFFF;}
</style>
<g>
	<path class="st0" d="M98.9,37.8H39.3V13.3c0-3.5,2.8-6.3,6.3-6.3h18.2c3.5,0,6.3,2.8,6.3,6.3v15.4c0,1.2,0.9,2.1,2.1,2.1
		c1.2,0,2.1-0.9,2.1-2.1V13.3c0-5.8-4.7-10.5-10.5-10.5H45.6c-5.8,0-10.5,4.7-10.5,10.5v24.5H10.5C4.7,37.8,0,42.5,0,48.3v18.2
		c0,5.8,4.7,10.5,10.5,10.5h18.2c5.8,0,10.5-4.7,10.5-10.5V42h59.6c3.5,0,6.3,2.8,6.3,6.3v18.2c0,3.5-2.8,6.3-6.3,6.3H74.3V50.5
		c0-1.2-0.9-2.1-2.1-2.1c-1.2,0-2.1,0.9-2.1,2.1v22.4H45.6c-5.8,0-10.5,4.7-10.5,10.5v18.2c0,5.8,4.7,10.5,10.5,10.5h18.2
		c5.8,0,10.5-4.7,10.5-10.5V77.1h24.5c5.8,0,10.5-4.7,10.5-10.5V48.3C109.4,42.5,104.7,37.8,98.9,37.8z M35.1,66.5
		c0,3.5-2.8,6.3-6.3,6.3H10.5c-3.5,0-6.3-2.8-6.3-6.3V48.3c0-3.5,2.8-6.3,6.3-6.3h24.5V66.5z M70.1,101.6c0,3.5-2.8,6.3-6.3,6.3
		H45.6c-3.5,0-6.3-2.8-6.3-6.3V83.4c0-3.5,2.8-6.3,6.3-6.3h24.5V101.6z"/>
	<g>
		<path class="st0" d="M152.8,3.1h12.1l25.7,60.3h-13.8L171.3,50H146l-5.5,13.4h-13.4L152.8,3.1z M166.6,38.3l-8-19.4l-8,19.4H166.6
			z"/>
		<path class="st0" d="M195.5,3.5h27.8c6.8,0,12.2,1.9,15.6,5.3c2.7,2.7,4.1,6.1,4.1,10.2v0.2c0,6.8-3.6,10.5-7.9,12.9
			c6.9,2.7,11.2,6.7,11.2,14.7V47c0,10.9-8.9,16.4-22.4,16.4h-28.5V3.5z M230,21.2c0-3.9-3.1-6.2-8.6-6.2h-13v12.7h12.1
			c5.8,0,9.5-1.9,9.5-6.3V21.2z M223.6,38.7h-15.2v13.2H224c5.8,0,9.3-2.1,9.3-6.5v-0.2C233.3,41.1,230.3,38.7,223.6,38.7z"/>
		<path class="st0" d="M253.8,3.5H266l28,36.9V3.5h13v59.9h-11.2l-29-38.1v38.1h-13V3.5z"/>
		<path class="st0" d="M317.1,3.5h45.2v11.7h-32.1v12.1h28.2v11.7h-28.2v12.6h32.5v11.7h-45.6V3.5z"/>
		<path class="st0" d="M388.7,39.8l-23-36.3h15.4l14.3,24l14.5-24h15l-23,36v23.9h-13.2V39.8z"/>
	</g>
	<g>
		<path class="st0" d="M127.3,79.9h3.6v14.3h18.6V79.9h3.6v32.2h-3.6V97.6H131v14.5h-3.6V79.9z"/>
		<path class="st0" d="M160,79.9h23.3v3.3h-19.6v11h17.6v3.3h-17.6v11.3h19.9v3.3H160V79.9z"/>
		<path class="st0" d="M200.4,79.7h3.4l14.7,32.4h-3.9l-3.8-8.5h-17.5l-3.8,8.5h-3.7L200.4,79.7z M209.4,100.4l-7.3-16.4l-7.4,16.4
			H209.4z"/>
		<path class="st0" d="M222.5,79.9h3.6v28.8h18.1v3.4h-21.8V79.9z"/>
		<path class="st0" d="M252.6,83.3h-10.9v-3.4h25.3v3.4h-10.9v28.8h-3.6V83.3z"/>
		<path class="st0" d="M271.4,79.9h3.6v14.3h18.6V79.9h3.6v32.2h-3.6V97.6h-18.6v14.5h-3.6V79.9z"/>
		<path class="st0" d="M301.3,96.1L301.3,96.1c0-9.2,6.8-16.7,16.3-16.7c5.8,0,9.3,2.1,12.6,5.1l-2.5,2.7c-2.7-2.6-5.7-4.4-10.1-4.4
			c-7.1,0-12.5,5.8-12.5,13.2V96c0,7.5,5.4,13.3,12.5,13.3c4.4,0,7.3-1.7,10.4-4.6l2.4,2.3c-3.4,3.4-7,5.7-12.9,5.7
			C308.1,112.7,301.3,105.4,301.3,96.1z"/>
		<path class="st0" d="M347.2,79.7h3.4l14.7,32.4h-3.9l-3.8-8.5H340l-3.8,8.5h-3.7L347.2,79.7z M356.1,100.4l-7.3-16.4l-7.4,16.4
			H356.1z"/>
		<path class="st0" d="M369.3,79.9h13.8c4,0,7.1,1.2,9.2,3.2c1.6,1.6,2.5,3.8,2.5,6.3v0.1c0,5.3-3.7,8.5-8.7,9.4l9.9,13.2h-4.5
			l-9.3-12.5h-9.2v12.5h-3.6V79.9z M382.8,96.4c4.8,0,8.3-2.5,8.3-6.6v-0.1c0-4-3-6.3-8.2-6.3h-9.9v13.1H382.8z"/>
		<path class="st0" d="M400.2,79.9h23.3v3.3h-19.6v11h17.6v3.3h-17.6v11.3h19.9v3.3h-23.5V79.9z"/>
	</g>
</g>
</svg>
