<?xml version="1.0" encoding="utf-8"?>
<!-- Generator: Adobe Illustrator 26.0.3, SVG Export Plug-In . SVG Version: 6.00 Build 0)  -->
<svg version="1.1" id="Layer_1" xmlns="http://www.w3.org/2000/svg" xmlns:xlink="http://www.w3.org/1999/xlink" x="0px" y="0px"
	 viewBox="0 0 844 390" style="enable-background:new 0 0 844 390;" xml:space="preserve">
<style type="text/css">
	.st0{clip-path:url(#SVGID_00000078751224298287214090000002043271419372480387_);}
	.st1{fill:url(#Path_90_00000150808172816848334640000016311113495321343893_);}
	.st2{fill:url(#Path_90-2_00000180358909363467571030000004773724269440727685_);}
	.st3{fill:url(#Path_91_00000016759108873158724980000001308065957917154184_);}
	.st4{fill:url(#Path_92_00000097502340584101176210000011544612087697175225_);}
	.st5{fill:url(#Path_93_00000119801980186084393300000011356386906316355971_);}
	.st6{fill:url(#Rectangle_761_00000065038006243026454940000003163072585910417342_);}
	.st7{fill:url(#Rectangle_766_00000058549996097052612710000001143888104222477234_);}
	.st8{fill:url(#Rectangle_762_00000098222625331196655340000013353784442067020193_);}
	.st9{fill:url(#Rectangle_763_00000138549540697012009560000005984365139390806402_);}
	.st10{fill:url(#Rectangle_764_00000120518507784333497610000018114691854084165791_);}
	.st11{fill:url(#Path_94_00000065075204155318877280000001944515873767257011_);}
	.st12{fill:url(#Path_93-2_00000030478836453989719730000017194257596965419666_);}
</style>
<g>
	<defs>
		<rect id="SVGID_1_" width="844" height="390"/>
	</defs>
	<clipPath id="SVGID_00000138542387800823722030000015994664370068345016_">
		<use xlink:href="#SVGID_1_"  style="overflow:visible;"/>
	</clipPath>
	<g id="Mask_Group_3" style="clip-path:url(#SVGID_00000138542387800823722030000015994664370068345016_);">
		<g id="Group_26">
			<g id="iStock-1037064544_Converted_-04" transform="translate(308.739 85.163)">
				<g id="Layer_1_00000030445131760676776470000003453900917785135770_" transform="translate(-0.005)">
					
						<linearGradient id="Path_90_00000013887758318115905730000014435045673739827124_" gradientUnits="userSpaceOnUse" x1="-565.2377" y1="494.0708" x2="-565.2377" y2="493.0708" gradientTransform="matrix(9.952092e-15 -162.53 -162.53 -9.952092e-15 80077.7578 -91953.2422)">
						<stop  offset="0.114" style="stop-color:#D5006B"/>
						<stop  offset="0.492" style="stop-color:#722F80"/>
						<stop  offset="0.625" style="stop-color:#4E2C79"/>
						<stop  offset="0.784" style="stop-color:#292A72"/>
						<stop  offset="0.913" style="stop-color:#12286E"/>
						<stop  offset="0.995" style="stop-color:#0A286D"/>
						<stop  offset="1" style="stop-color:#0A286D"/>
					</linearGradient>
					<path id="Path_90" style="fill:url(#Path_90_00000013887758318115905730000014435045673739827124_);" d="M-142.3-155.1
						c38.6,0,70,31.3,70,70s-31.3,70-70,70c-38.6,0-70-31.3-70-70l0,0h-11.3l0,0c0,44.9,36.4,81.3,81.3,81.3S-61-40.3-61-85.2
						s-36.4-81.3-81.3-81.3l0,0V-155.1z"/>
				</g>
			</g>
			<g id="iStock-1037064544_Converted_-04-2" transform="translate(294.068 434)">
				<g id="Layer_1-2" transform="translate(-0.005)">
					
						<linearGradient id="Path_90-2_00000083069747642334249210000006997182268964368023_" gradientUnits="userSpaceOnUse" x1="-551.4983" y1="145.1611" x2="-551.4983" y2="144.1611" gradientTransform="matrix(1.444299e-14 -235.872 -235.872 -1.444299e-14 34379.375 -130539.0078)">
						<stop  offset="0" style="stop-color:#D5006B"/>
						<stop  offset="0.995" style="stop-color:#0A286D;stop-opacity:0"/>
						<stop  offset="1" style="stop-color:#0A286D"/>
					</linearGradient>
					<path id="Path_90-2" style="fill:url(#Path_90-2_00000083069747642334249210000006997182268964368023_);" d="M257.9-557.6
						c56.1,0,101.6,45.5,101.6,101.6S314-354.4,257.9-354.4S156.3-399.9,156.3-456l0,0h-16.4l0,0c0,65.1,52.8,117.9,117.9,117.9
						S375.8-390.9,375.8-456S323-573.9,257.9-573.9c0,0,0,0,0,0V-557.6z"/>
				</g>
			</g>
			<g id="iStock-1037064544_Converted_-04-3" transform="translate(628.098 247.695) rotate(-177)">
				<g id="Layer_1-3" transform="translate(-0.005)">
					
						<linearGradient id="Path_91_00000096767950889429435480000010542930237812773035_" gradientUnits="userSpaceOnUse" x1="872.8181" y1="-377.0098" x2="872.8181" y2="-376.0098" gradientTransform="matrix(6.7587 128.963 128.963 -6.7587 43126.5469 -114708.6953)">
						<stop  offset="0" style="stop-color:#D5006B"/>
						<stop  offset="0.995" style="stop-color:#0A286D"/>
						<stop  offset="1" style="stop-color:#0A286D"/>
					</linearGradient>
					<path id="Path_91" style="fill:url(#Path_91_00000096767950889429435480000010542930237812773035_);" d="M469.9,345
						c30.7,0,55.6,24.9,55.6,55.6s-24.9,55.6-55.6,55.6s-55.6-24.9-55.6-55.6l0,0l0,0h-9l0,0c0,35.7,28.9,64.6,64.6,64.6
						s64.6-28.9,64.6-64.6s-28.9-64.6-64.6-64.6l0,0V345z"/>
				</g>
			</g>
			<g id="iStock-1037064544_Converted_-02" transform="translate(102.154 713.713) rotate(-135)">
				<g id="Layer_1-4" transform="translate(0 0)">
					<g id="Group_25" transform="translate(-10.607 -4.95)">
						<g id="Group_24">
							
								<linearGradient id="Path_92_00000095323910080227697610000015829518371679662772_" gradientUnits="userSpaceOnUse" x1="26.7166" y1="350.9792" x2="24.9763" y2="609.7007" gradientTransform="matrix(0 -1 1 0 -446.6734 749.1277)">
								<stop  offset="0" style="stop-color:#D5006B"/>
								<stop  offset="0.757" style="stop-color:#0A286D;stop-opacity:0"/>
								<stop  offset="1" style="stop-color:#0A286D"/>
							</linearGradient>
							<path id="Path_92" style="fill:url(#Path_92_00000095323910080227697610000015829518371679662772_);" d="M70.1,653.6
								c0,52.8-43.8,95.6-97.9,95.6s-97.9-42.8-97.9-95.6c0-52.8,43.8-95.6,97.9-95.6C26.3,558.1,70,600.8,70.1,653.6L70.1,653.6z
								 M-109.8,653.6c0,44.2,36.7,80.1,82,80.1s82-35.8,82-80.1s-36.7-80.1-82-80.1C-73.1,573.5-109.8,609.4-109.8,653.6z"/>
						</g>
					</g>
				</g>
			</g>
			<g id="iStock-1037064544_Converted_-03" transform="translate(37 -153.532)">
				<g id="Layer_1-5" transform="translate(-0.001)">
					
						<linearGradient id="Path_93_00000093862757874055139120000017920471204776328634_" gradientUnits="userSpaceOnUse" x1="-294.3225" y1="732.1595" x2="-293.3745" y2="732.1205" gradientTransform="matrix(1.124742e-14 -183.6843 -324.1248 -1.984692e-14 237279.2656 -53560.5273)">
						<stop  offset="0" style="stop-color:#D5006B"/>
						<stop  offset="0.868" style="stop-color:#0A286D"/>
						<stop  offset="1" style="stop-color:#0A286D"/>
					</linearGradient>
					<path id="Path_93" style="fill:url(#Path_93_00000093862757874055139120000017920471204776328634_);" d="M106.7,479.6
						c35.9-35.9,35.9-94,0-129.9c-17.2-17.2-40.6-26.9-64.9-26.9v12.7c43.7,0,79.2,35.4,79.2,79.2s-35.4,79.2-79.2,79.2l0,0h-232.3
						v12.7H41.8C66.1,506.6,89.5,496.9,106.7,479.6z"/>
				</g>
			</g>
			
				<linearGradient id="Rectangle_761_00000097469694698960665760000000350154117745865640_" gradientUnits="userSpaceOnUse" x1="-262.6667" y1="583.9192" x2="-262.6667" y2="582.9192" gradientTransform="matrix(12 0 0 -99 3461 58112)">
				<stop  offset="0" style="stop-color:#0A286D"/>
				<stop  offset="1" style="stop-color:#E40D7C"/>
			</linearGradient>
			
				<rect id="Rectangle_761" x="303" y="304" style="fill:url(#Rectangle_761_00000097469694698960665760000000350154117745865640_);" width="12" height="99"/>
			
				<linearGradient id="Rectangle_766_00000110435707379185134300000014722044144617187770_" gradientUnits="userSpaceOnUse" x1="-300.0833" y1="578.6161" x2="-300.0833" y2="577.6161" gradientTransform="matrix(-7.347881e-16 12 99 6.062002e-15 -56424 3713.592)">
				<stop  offset="0" style="stop-color:#0A286D;stop-opacity:0"/>
				<stop  offset="0.483" style="stop-color:#9E1677;stop-opacity:0.678"/>
				<stop  offset="1" style="stop-color:#E40D7C"/>
			</linearGradient>
			
				<rect id="Rectangle_766" x="760" y="106.6" style="fill:url(#Rectangle_766_00000110435707379185134300000014722044144617187770_);" width="99" height="12"/>
			
				<linearGradient id="Rectangle_762_00000160185248909172485180000000386742824362306736_" gradientUnits="userSpaceOnUse" x1="-256.9667" y1="575.0726" x2="-256.9667" y2="574.0726" gradientTransform="matrix(-15 0 0 124 -3102 -70894)">
				<stop  offset="0" style="stop-color:#0A286D"/>
				<stop  offset="1" style="stop-color:#E40D7C"/>
			</linearGradient>
			
				<rect id="Rectangle_762" x="745" y="291" style="fill:url(#Rectangle_762_00000160185248909172485180000000386742824362306736_);" width="15" height="124"/>
			
				<linearGradient id="Rectangle_763_00000115489402120776612270000007417054234911899566_" gradientUnits="userSpaceOnUse" x1="-218.1587" y1="579.3131" x2="-218.1587" y2="578.3131" gradientTransform="matrix(7.213170e-16 -11.78 -121.365 -7.431463e-15 70247.6484 -2321.812)">
				<stop  offset="0" style="stop-color:#0A286D"/>
				<stop  offset="1" style="stop-color:#E40D7C"/>
			</linearGradient>
			
				<rect id="Rectangle_763" x="-60.7" y="242.2" style="fill:url(#Rectangle_763_00000115489402120776612270000007417054234911899566_);" width="121.4" height="11.8"/>
			
				<linearGradient id="Rectangle_764_00000029018911566032959490000003438913694543321225_" gradientUnits="userSpaceOnUse" x1="-255.7" y1="572.9877" x2="-255.7" y2="571.9877" gradientTransform="matrix(-10 0 0 81 -2579.77 -46526.9844)">
				<stop  offset="0" style="stop-color:#0A286D"/>
				<stop  offset="1" style="stop-color:#E40D7C"/>
			</linearGradient>
			
				<rect id="Rectangle_764" x="-27.8" y="-196" style="fill:url(#Rectangle_764_00000029018911566032959490000003438913694543321225_);" width="10" height="81"/>
			<g id="iStock-1037064544_Converted_-03-2" transform="translate(504.984 33.216) rotate(90)">
				<g id="Layer_1-6" transform="translate(-0.001)">
					
						<linearGradient id="Path_94_00000078738770261068503470000015226268862933048474_" gradientUnits="userSpaceOnUse" x1="546.8333" y1="765.0992" x2="547.4533" y2="765.3422" gradientTransform="matrix(-323.9255 0 0 183.5693 177132.4688 -139993.8438)">
						<stop  offset="0" style="stop-color:#D5006B"/>
						<stop  offset="1" style="stop-color:#0A286D"/>
					</linearGradient>
					<path id="Path_94" style="fill:url(#Path_94_00000078738770261068503470000015226268862933048474_);" d="M148.8,444.9
						c35.8-35.8,35.8-94,0-129.8c-17.2-17.2-40.6-26.9-64.9-26.9v12.7c43.7,0.2,79,35.7,78.8,79.4c-0.2,43.5-35.4,78.7-78.8,78.8
						h-232.1v12.7H83.9C108.3,471.8,131.7,462.2,148.8,444.9L148.8,444.9z"/>
				</g>
			</g>
		</g>
		<g id="iStock-1037064544_Converted_-03-3" transform="translate(138.09 688.858)">
			<g id="Layer_1-7" transform="translate(0 0)">
				
					<linearGradient id="Path_93-2_00000051376139576397187150000000726944559909633164_" gradientUnits="userSpaceOnUse" x1="-395.7735" y1="-110.2677" x2="-394.7545" y2="-110.2227" gradientTransform="matrix(1.301759e-14 -212.5934 -375.1371 -2.297052e-14 -40623.0273 -84581.25)">
					<stop  offset="0" style="stop-color:#D5006B"/>
					<stop  offset="1" style="stop-color:#0A286D;stop-opacity:0"/>
					<stop  offset="1" style="stop-color:#0A286D"/>
				</linearGradient>
				<path id="Path_93-2" style="fill:url(#Path_93-2_00000051376139576397187150000000726944559909633164_);" d="M581.9-468.1
					c-41.5-41.5-41.5-108.8,0-150.3c19.9-19.9,47-31.1,75.2-31.1v14.7c-50.6,0-91.6,41-91.6,91.6s41,91.6,91.6,91.6h268.8v14.7
					H657.1C628.9-436.9,601.8-448.1,581.9-468.1z"/>
			</g>
		</g>
	</g>
</g>
</svg>
