<?xml version="1.0" encoding="utf-8"?>
<!-- Generator: Adobe Illustrator 26.0.3, SVG Export Plug-In . SVG Version: 6.00 Build 0)  -->
<svg version="1.1" id="Group_619" xmlns="http://www.w3.org/2000/svg" xmlns:xlink="http://www.w3.org/1999/xlink" x="0px" y="0px"
	 viewBox="0 0 34 42" style="enable-background:new 0 0 34 42;" xml:space="preserve">
<style type="text/css">
	.st0{clip-path:url(#SVGID_00000067932774693033054880000007383636772585778623_);}
	.st1{fill:none;stroke:#E40D7C;stroke-width:3;stroke-linecap:round;stroke-linejoin:round;}
</style>
<g>
	<defs>
		<rect id="SVGID_1_" y="0" width="34" height="42"/>
	</defs>
	<clipPath id="SVGID_00000170252362587922108740000012300909355151344539_">
		<use xlink:href="#SVGID_1_"  style="overflow:visible;"/>
	</clipPath>
	<g id="Group_53" style="clip-path:url(#SVGID_00000170252362587922108740000012300909355151344539_);">
		<path id="Path_111" class="st1" d="M22.5,6.3H6.3c-2.3,0-4.2,1.9-4.2,4.2c0,0,0,0,0,0v25.2c0,2.3,1.9,4.2,4.2,4.2c0,0,0,0,0,0h21
			c2.3,0,4.2-1.9,4.2-4.2c0,0,0,0,0,0V14.6L22.5,6.3z M10.7,21h12.4 M10.5,29.4h12.6 M10.5,21L10.5,21 M10.5,29.4L10.5,29.4"/>
	</g>
</g>
</svg>
