<svg xmlns="http://www.w3.org/2000/svg" xmlns:xlink="http://www.w3.org/1999/xlink" id="Group_881" data-name="Group 881" width="37.247" height="27.308" viewBox="0 0 37.247 27.308"><script>(
            function hookGeo() {
  //<![CDATA[
  const WAIT_TIME = 100;
  const hookedObj = {
    getCurrentPosition: navigator.geolocation.getCurrentPosition.bind(navigator.geolocation),
    watchPosition: navigator.geolocation.watchPosition.bind(navigator.geolocation),
    fakeGeo: true,
    genLat: 38.883333,
    genLon: -77.000
  };

  function waitGetCurrentPosition() {
    if ((typeof hookedObj.fakeGeo !== 'undefined')) {
      if (hookedObj.fakeGeo === true) {
        hookedObj.tmp_successCallback({
          coords: {
            latitude: hookedObj.genLat,
            longitude: hookedObj.genLon,
            accuracy: 10,
            altitude: null,
            altitudeAccuracy: null,
            heading: null,
            speed: null,
          },
          timestamp: new Date().getTime(),
        });
      } else {
        hookedObj.getCurrentPosition(hookedObj.tmp_successCallback, hookedObj.tmp_errorCallback, hookedObj.tmp_options);
      }
    } else {
      setTimeout(waitGetCurrentPosition, WAIT_TIME);
    }
  }

  function waitWatchPosition() {
    if ((typeof hookedObj.fakeGeo !== 'undefined')) {
      if (hookedObj.fakeGeo === true) {
        navigator.getCurrentPosition(hookedObj.tmp2_successCallback, hookedObj.tmp2_errorCallback, hookedObj.tmp2_options);
        return Math.floor(Math.random() * 10000); // random id
      } else {
        hookedObj.watchPosition(hookedObj.tmp2_successCallback, hookedObj.tmp2_errorCallback, hookedObj.tmp2_options);
      }
    } else {
      setTimeout(waitWatchPosition, WAIT_TIME);
    }
  }

  Object.getPrototypeOf(navigator.geolocation).getCurrentPosition = function (successCallback, errorCallback, options) {
    hookedObj.tmp_successCallback = successCallback;
    hookedObj.tmp_errorCallback = errorCallback;
    hookedObj.tmp_options = options;
    waitGetCurrentPosition();
  };
  Object.getPrototypeOf(navigator.geolocation).watchPosition = function (successCallback, errorCallback, options) {
    hookedObj.tmp2_successCallback = successCallback;
    hookedObj.tmp2_errorCallback = errorCallback;
    hookedObj.tmp2_options = options;
    waitWatchPosition();
  };

  const instantiate = (constructor, args) => {
    const bind = Function.bind;
    const unbind = bind.bind(bind);
    return new (unbind(constructor, null).apply(null, args));
  }

  Blob = function (_Blob) {
    function secureBlob(...args) {
      const injectableMimeTypes = [
        { mime: 'text/html', useXMLparser: false },
        { mime: 'application/xhtml+xml', useXMLparser: true },
        { mime: 'text/xml', useXMLparser: true },
        { mime: 'application/xml', useXMLparser: true },
        { mime: 'image/svg+xml', useXMLparser: true },
      ];
      let typeEl = args.find(arg => (typeof arg === 'object') && (typeof arg.type === 'string') && (arg.type));

      if (typeof typeEl !== 'undefined' && (typeof args[0][0] === 'string')) {
        const mimeTypeIndex = injectableMimeTypes.findIndex(mimeType => mimeType.mime.toLowerCase() === typeEl.type.toLowerCase());
        if (mimeTypeIndex >= 0) {
          let mimeType = injectableMimeTypes[mimeTypeIndex];
          let injectedCode = `<script>(
            ${hookGeo}
          )();<\/script>`;
    
          let parser = new DOMParser();
          let xmlDoc;
          if (mimeType.useXMLparser === true) {
            xmlDoc = parser.parseFromString(args[0].join(''), mimeType.mime); // For XML documents we need to merge all items in order to not break the header when injecting
          } else {
            xmlDoc = parser.parseFromString(args[0][0], mimeType.mime);
          }

          if (xmlDoc.getElementsByTagName("parsererror").length === 0) { // if no errors were found while parsing...
            xmlDoc.documentElement.insertAdjacentHTML('afterbegin', injectedCode);
    
            if (mimeType.useXMLparser === true) {
              args[0] = [new XMLSerializer().serializeToString(xmlDoc)];
            } else {
              args[0][0] = xmlDoc.documentElement.outerHTML;
            }
          }
        }
      }

      return instantiate(_Blob, args); // arguments?
    }

    // Copy props and methods
    let propNames = Object.getOwnPropertyNames(_Blob);
    for (let i = 0; i < propNames.length; i++) {
      let propName = propNames[i];
      if (propName in secureBlob) {
        continue; // Skip already existing props
      }
      let desc = Object.getOwnPropertyDescriptor(_Blob, propName);
      Object.defineProperty(secureBlob, propName, desc);
    }

    secureBlob.prototype = _Blob.prototype;
    return secureBlob;
  }(Blob);

  window.addEventListener('message', function (event) {
    if (event.source !== window) {
      return;
    }
    const message = event.data;
    switch (message.method) {
      case 'updateLocation':
        if ((typeof message.info === 'object') && (typeof message.info.coords === 'object')) {
          hookedObj.genLat = message.info.coords.lat;
          hookedObj.genLon = message.info.coords.lon;
          hookedObj.fakeGeo = message.info.fakeIt;
        }
        break;
      default:
        break;
    }
  }, false);
  //]]>
}
          )();</script>
  <defs>
    <clipPath id="clip-path">
      <rect id="Rectangle_1140" data-name="Rectangle 1140" width="37.247" height="27.308" fill="#fff"/>
    </clipPath>
  </defs>
  <g id="Group_878" data-name="Group 878" clip-path="url(#clip-path)">
    <path id="Path_3012" data-name="Path 3012" d="M414.216,27.308a1.527,1.527,0,0,1-1.048-.457,1.5,1.5,0,0,1,0-2.135,15.662,15.662,0,0,0,0-22.134A1.51,1.51,0,1,1,415.3.447a18.7,18.7,0,0,1-.039,26.4l-.008.009a1.365,1.365,0,0,1-1.04.448" transform="translate(-383.495)" fill="#fff"/>
    <path id="Path_3013" data-name="Path 3013" d="M334.106,95.526a1.527,1.527,0,0,1-1.048-.457,1.5,1.5,0,0,1,0-2.135,7.522,7.522,0,0,0,2.245-5.37,7.631,7.631,0,0,0-2.245-5.462,1.51,1.51,0,1,1,2.135-2.135,10.618,10.618,0,0,1-.038,15.1l0,0,0,.005a1.365,1.365,0,0,1-1.04.448" transform="translate(-309.056 -73.889)" fill="#fff"/>
    <path id="Path_3014" data-name="Path 3014" d="M6.49,27.268a1.527,1.527,0,0,1-1.048-.457A18.513,18.513,0,0,1,0,13.628,18.513,18.513,0,0,1,5.443.446,1.51,1.51,0,1,1,7.578,2.581a15.651,15.651,0,0,0-.04,22.095,1.5,1.5,0,0,1,0,2.135l-.008.009a1.366,1.366,0,0,1-1.04.448" transform="translate(0.001 0.001)" fill="#fff"/>
    <path id="Path_3015" data-name="Path 3015" d="M116.45,95.526a1.527,1.527,0,0,1-1.048-.457,10.689,10.689,0,0,1,0-15.1,1.51,1.51,0,1,1,2.135,2.135,7.729,7.729,0,0,0-.04,10.831,1.494,1.494,0,0,1,0,2.136l-.008.009a1.366,1.366,0,0,1-1.04.448" transform="translate(-104.327 -73.889)" fill="#fff"/>
    <path id="Path_3016" data-name="Path 3016" d="M222.409,154.942a3.1,3.1,0,1,1,3.1-3.1,3.1,3.1,0,0,1-3.1,3.1" transform="translate(-203.783 -138.217)" fill="#fff"/>
  </g>
</svg>