<svg id="Group_1090" data-name="Group 1090" xmlns="http://www.w3.org/2000/svg" xmlns:xlink="http://www.w3.org/1999/xlink" width="30" height="30" viewBox="0 0 30 30">
  <defs>
    <clipPath id="clip-path">
      <rect id="Rectangle_1185" data-name="Rectangle 1185" width="30" height="30" fill="none" stroke="#fff" stroke-width="2"/>
    </clipPath>
  </defs>
  <g id="Group_1090-2" data-name="Group 1090" clip-path="url(#clip-path)">
    <path id="Path_3041" data-name="Path 3041" d="M11.847,2.95a2.553,2.553,0,0,1,4.962,0,2.553,2.553,0,0,0,3.809,1.579,2.553,2.553,0,0,1,3.51,3.508A2.551,2.551,0,0,0,25.7,11.846a2.553,2.553,0,0,1,0,4.962,2.551,2.551,0,0,0-1.577,3.809,2.554,2.554,0,0,1-3.51,3.51A2.552,2.552,0,0,0,16.809,25.7a2.553,2.553,0,0,1-4.962,0,2.552,2.552,0,0,0-3.809-1.577,2.554,2.554,0,0,1-3.51-3.51,2.552,2.552,0,0,0-1.577-3.809,2.553,2.553,0,0,1,0-4.962A2.552,2.552,0,0,0,4.529,8.037a2.553,2.553,0,0,1,3.51-3.508A2.553,2.553,0,0,0,11.847,2.95Z" transform="translate(0.481 0.481)" fill="none" stroke="#fff" stroke-linecap="round" stroke-linejoin="round" stroke-width="2"/>
    <circle id="Ellipse_27" data-name="Ellipse 27" cx="4.5" cy="4.5" r="4.5" transform="translate(10 10)" fill="none" stroke="#fff" stroke-linecap="round" stroke-linejoin="round" stroke-width="2"/>
  </g>
</svg>
