<svg xmlns="http://www.w3.org/2000/svg" xmlns:xlink="http://www.w3.org/1999/xlink" width="390" height="844" viewBox="0 0 390 844">
  <defs>
    <clipPath id="clip-path">
      <rect id="Rectangle_765" data-name="Rectangle 765" width="390" height="844" fill="#0a286d" stroke="#707070" stroke-width="1"/>
    </clipPath>
    <linearGradient id="linear-gradient" x1="0.5" x2="0.5" y2="1" gradientUnits="objectBoundingBox">
      <stop offset="0.114" stop-color="#d5006b"/>
      <stop offset="0.492" stop-color="#722f80"/>
      <stop offset="0.625" stop-color="#4e2c79"/>
      <stop offset="0.784" stop-color="#292a72"/>
      <stop offset="0.913" stop-color="#12286e"/>
      <stop offset="0.995" stop-color="#0a286d"/>
      <stop offset="1" stop-color="#0a286d"/>
    </linearGradient>
    <linearGradient id="linear-gradient-2" x1="0.5" x2="0.5" y2="1" gradientUnits="objectBoundingBox">
      <stop offset="0" stop-color="#d5006b"/>
      <stop offset="0.995" stop-color="#0a286d" stop-opacity="0"/>
      <stop offset="1" stop-color="#0a286d"/>
    </linearGradient>
    <linearGradient id="linear-gradient-3" x1="0.5" x2="0.5" y2="1" gradientUnits="objectBoundingBox">
      <stop offset="0" stop-color="#d5006b"/>
      <stop offset="0.995" stop-color="#0a286d"/>
      <stop offset="1" stop-color="#0a286d"/>
    </linearGradient>
    <linearGradient id="linear-gradient-4" x1="0.5" x2="0.491" y2="1.338" gradientUnits="objectBoundingBox">
      <stop offset="0" stop-color="#d5006b"/>
      <stop offset="0.757" stop-color="#0a286d" stop-opacity="0"/>
      <stop offset="1" stop-color="#0a286d"/>
    </linearGradient>
    <linearGradient id="linear-gradient-5" x1="0.019" y1="0.641" x2="0.967" y2="0.68" gradientUnits="objectBoundingBox">
      <stop offset="0" stop-color="#d5006b"/>
      <stop offset="0.868" stop-color="#0a286d"/>
      <stop offset="1" stop-color="#0a286d"/>
    </linearGradient>
    <linearGradient id="linear-gradient-6" x1="0.5" x2="0.5" y2="1" gradientUnits="objectBoundingBox">
      <stop offset="0" stop-color="#0a286d"/>
      <stop offset="1" stop-color="#e40d7c"/>
    </linearGradient>
    <linearGradient id="linear-gradient-7" x1="0.5" x2="0.5" y2="1" gradientUnits="objectBoundingBox">
      <stop offset="0" stop-color="#0a286d" stop-opacity="0"/>
      <stop offset="0.483" stop-color="#9e1677" stop-opacity="0.678"/>
      <stop offset="1" stop-color="#e40d7c"/>
    </linearGradient>
    <linearGradient id="linear-gradient-11" x1="0.019" y1="0.641" x2="0.639" y2="0.884" gradientUnits="objectBoundingBox">
      <stop offset="0" stop-color="#d5006b"/>
      <stop offset="1" stop-color="#0a286d"/>
    </linearGradient>
    <linearGradient id="linear-gradient-12" x1="0.019" y1="0.359" x2="1.038" y2="0.314" gradientUnits="objectBoundingBox">
      <stop offset="0" stop-color="#d5006b"/>
      <stop offset="1" stop-color="#0a286d" stop-opacity="0"/>
      <stop offset="1" stop-color="#0a286d"/>
    </linearGradient>
  </defs>
  <g id="Mask_Group_3" data-name="Mask Group 3" clip-path="url(#clip-path)">
    <g id="Group_26" data-name="Group 26">
      <g id="iStock-1037064544_Converted_-04" data-name="iStock-1037064544 [Converted]-04" transform="translate(308.739 85.163)" style="mix-blend-mode: normal;isolation: isolate">
        <g id="Layer_1" data-name="Layer 1" transform="translate(-0.005)">
          <path id="Path_90" data-name="Path 90" d="M151.243,81.265a69.98,69.98,0,1,1-69.98-69.98h0V0h0a81.265,81.265,0,1,0,81.265,81.265Z" transform="translate(0.005)" fill="url(#linear-gradient)" style="mix-blend-mode: lighten;isolation: isolate"/>
        </g>
      </g>
      <g id="iStock-1037064544_Converted_-04-2" data-name="iStock-1037064544 [Converted]-04" transform="translate(294.068 434)" style="mix-blend-mode: normal;isolation: isolate">
        <g id="Layer_1-2" data-name="Layer 1" transform="translate(-0.005)">
          <path id="Path_90-2" data-name="Path 90" d="M219.492,117.935A101.558,101.558,0,1,1,117.934,16.377h0V0h0A117.936,117.936,0,1,0,235.87,117.935Z" transform="translate(0.005)" fill="url(#linear-gradient-2)" style="mix-blend-mode: lighten;isolation: isolate"/>
        </g>
      </g>
      <g id="iStock-1037064544_Converted_-04-3" data-name="iStock-1037064544 [Converted]-04" transform="translate(628.098 247.695) rotate(-177)" style="mix-blend-mode: normal;isolation: isolate">
        <g id="Layer_1-3" data-name="Layer 1" transform="translate(-0.005)">
          <path id="Path_91" data-name="Path 91" d="M120.171,64.57a55.6,55.6,0,1,1-55.6-55.6h0V0h0a64.57,64.57,0,1,0,64.57,64.57Z" transform="translate(0.005)" fill="url(#linear-gradient-3)" style="mix-blend-mode: lighten;isolation: isolate"/>
        </g>
      </g>
      <g id="iStock-1037064544_Converted_-02" data-name="iStock-1037064544 [Converted]-02" transform="translate(102.154 713.713) rotate(-135)" style="mix-blend-mode: normal;isolation: isolate">
        <g id="Layer_1-4" data-name="Layer 1" transform="translate(0 0)" style="mix-blend-mode: normal;isolation: isolate">
          <g id="Group_25" data-name="Group 25" transform="translate(-10.607 -4.95)" style="mix-blend-mode: lighten;isolation: isolate">
            <g id="Group_24" data-name="Group 24">
              <path id="Path_92" data-name="Path 92" d="M95.557,195.747C42.782,195.747,0,151.927,0,97.873S42.782,0,95.557,0s95.557,43.819,95.557,97.873c-.064,54.027-42.809,97.808-95.557,97.873Zm0-179.877c-44.217,0-80.062,36.714-80.062,82s35.845,82,80.062,82,80.062-36.714,80.062-82c-.03-45.276-35.858-81.973-80.062-82Z" transform="translate(0 0)" fill="url(#linear-gradient-4)"/>
            </g>
          </g>
        </g>
      </g>
      <g id="iStock-1037064544_Converted_-03" data-name="iStock-1037064544 [Converted]-03" transform="translate(37 -153.532)" style="mix-blend-mode: normal;isolation: isolate">
        <g id="Layer_1-5" data-name="Layer 1" transform="translate(-0.001)">
          <path id="Path_93" data-name="Path 93" d="M26.9,297.228a91.844,91.844,0,0,0,156.784-64.945H171.016a79.177,79.177,0,1,1-158.355,0V0H0V232.283a91.247,91.247,0,0,0,26.9,64.945Z" transform="translate(0.001)" fill="url(#linear-gradient-5)" style="mix-blend-mode: lighten;isolation: isolate"/>
        </g>
      </g>
      <rect id="Rectangle_761" data-name="Rectangle 761" width="12" height="99" transform="translate(86 303) rotate(90)" fill="url(#linear-gradient-6)"/>
      <rect id="Rectangle_766" data-name="Rectangle 766" width="12" height="99" transform="translate(283.408 859) rotate(180)" fill="url(#linear-gradient-7)"/>
      <rect id="Rectangle_762" data-name="Rectangle 762" width="15" height="124" transform="translate(-25 760) rotate(-90)" fill="url(#linear-gradient-6)"/>
      <rect id="Rectangle_763" data-name="Rectangle 763" width="11.78" height="121.365" transform="translate(136.012 -60.683)" fill="url(#linear-gradient-6)"/>
      <rect id="Rectangle_764" data-name="Rectangle 764" width="10" height="81" transform="translate(504.984 -17.77) rotate(-90)" fill="url(#linear-gradient-6)"/>
      <g id="iStock-1037064544_Converted_-03-2" data-name="iStock-1037064544 [Converted]-03" transform="translate(504.984 33.216) rotate(90)" style="mix-blend-mode: normal;isolation: isolate">
        <g id="Layer_1-6" data-name="Layer 1" transform="translate(-0.001)">
          <path id="Path_94" data-name="Path 94" d="M26.882,297.045a91.787,91.787,0,0,0,156.687-64.9H170.911a79.129,79.129,0,0,1-158.257,0V0H0V232.14a91.19,91.19,0,0,0,26.882,64.9Z" transform="translate(0.001)" fill="url(#linear-gradient-11)" style="mix-blend-mode: lighten;isolation: isolate"/>
        </g>
      </g>
    </g>
    <g id="iStock-1037064544_Converted_-03-3" data-name="iStock-1037064544 [Converted]-03" transform="translate(138.09 688.858)" style="mix-blend-mode: normal;isolation: isolate">
      <g id="Layer_1-7" data-name="Layer 1" transform="translate(0 0)">
        <path id="Path_93-2" data-name="Path 93" d="M31.133,31.134A106.3,106.3,0,0,1,212.593,106.3h-14.66a91.639,91.639,0,0,0-183.279,0V375.142H0V106.3A105.608,105.608,0,0,1,31.133,31.134Z" fill="url(#linear-gradient-12)" style="mix-blend-mode: lighten;isolation: isolate"/>
      </g>
    </g>
  </g>
</svg>
